<svg width="27" height="15" viewBox="0 0 27 15" fill="none" xmlns="http://www.w3.org/2000/svg">
  <path d="M1 6.36395C0.447715 6.36395 4.82823e-08 6.81167 0 7.36395C-4.82823e-08 7.91624 0.447715 8.36395 1 8.36395L1 7.36395L1 6.36395ZM26.707 8.07106C27.0975 7.68054 27.0975 7.04737 26.707 6.65685L20.343 0.292887C19.9525 -0.0976379 19.3193 -0.097638 18.9288 0.292886C18.5383 0.683411 18.5383 1.31658 18.9288 1.7071L24.5857 7.36395L18.9288 13.0208C18.5383 13.4113 18.5383 14.0445 18.9288 14.435C19.3193 14.8255 19.9525 14.8255 20.343 14.435L26.707 8.07106ZM1 7.36395L1 8.36395L25.9999 8.36395L25.9999 7.36395L25.9999 6.36395L1 6.36395L1 7.36395Z" fill="white" />
</svg>